<svg xmlns="http://www.w3.org/2000/svg" xmlns:xlink="http://www.w3.org/1999/xlink" width="150" zoomAndPan="magnify" viewBox="0 0 112.5 112.499997" height="150" preserveAspectRatio="xMidYMid meet" version="1.0"><defs><clipPath id="a3316b03ab"><path d="M 0 0 L 112.003906 0 L 112.003906 112.003906 L 0 112.003906 Z M 0 0 " clip-rule="nonzero"/></clipPath></defs><g clip-path="url(#a3316b03ab)"><path fill="#365b6d" d="M 112.5 56.25 C 112.5 58.09375 112.410156 59.929688 112.230469 61.761719 C 112.046875 63.597656 111.777344 65.417969 111.417969 67.222656 C 111.058594 69.03125 110.613281 70.816406 110.078125 72.578125 C 109.542969 74.339844 108.921875 76.074219 108.21875 77.777344 C 107.511719 79.476562 106.726562 81.140625 105.859375 82.765625 C 104.988281 84.390625 104.042969 85.96875 103.019531 87.5 C 101.996094 89.03125 100.902344 90.511719 99.730469 91.933594 C 98.5625 93.359375 97.328125 94.722656 96.023438 96.023438 C 94.722656 97.328125 93.359375 98.5625 91.933594 99.730469 C 90.511719 100.902344 89.03125 101.996094 87.5 103.019531 C 85.96875 104.042969 84.390625 104.988281 82.765625 105.859375 C 81.140625 106.726562 79.476562 107.511719 77.777344 108.21875 C 76.074219 108.921875 74.339844 109.542969 72.578125 110.078125 C 70.816406 110.613281 69.03125 111.058594 67.222656 111.417969 C 65.417969 111.777344 63.597656 112.046875 61.761719 112.230469 C 59.929688 112.410156 58.09375 112.5 56.25 112.5 C 54.40625 112.5 52.570312 112.410156 50.738281 112.230469 C 48.902344 112.046875 47.082031 111.777344 45.277344 111.417969 C 43.46875 111.058594 41.683594 110.613281 39.921875 110.078125 C 38.160156 109.542969 36.425781 108.921875 34.722656 108.21875 C 33.023438 107.511719 31.359375 106.726562 29.734375 105.859375 C 28.109375 104.988281 26.53125 104.042969 25 103.019531 C 23.46875 101.996094 21.988281 100.902344 20.566406 99.730469 C 19.140625 98.5625 17.777344 97.328125 16.476562 96.023438 C 15.171875 94.722656 13.9375 93.359375 12.769531 91.933594 C 11.597656 90.511719 10.503906 89.03125 9.480469 87.5 C 8.457031 85.96875 7.511719 84.390625 6.640625 82.765625 C 5.773438 81.140625 4.988281 79.476562 4.28125 77.777344 C 3.578125 76.074219 2.957031 74.339844 2.421875 72.578125 C 1.886719 70.816406 1.441406 69.03125 1.082031 67.222656 C 0.722656 65.417969 0.453125 63.597656 0.269531 61.761719 C 0.0898438 59.929688 0 58.09375 0 56.25 C 0 54.40625 0.0898438 52.570312 0.269531 50.738281 C 0.453125 48.902344 0.722656 47.082031 1.082031 45.277344 C 1.441406 43.46875 1.886719 41.683594 2.421875 39.921875 C 2.957031 38.160156 3.578125 36.425781 4.28125 34.722656 C 4.988281 33.023438 5.773438 31.359375 6.640625 29.734375 C 7.511719 28.109375 8.457031 26.53125 9.480469 25 C 10.503906 23.46875 11.597656 21.988281 12.769531 20.566406 C 13.9375 19.140625 15.171875 17.777344 16.476562 16.476562 C 17.777344 15.171875 19.140625 13.9375 20.566406 12.769531 C 21.988281 11.597656 23.46875 10.503906 25 9.480469 C 26.53125 8.457031 28.109375 7.511719 29.734375 6.640625 C 31.359375 5.773438 33.023438 4.988281 34.722656 4.28125 C 36.425781 3.578125 38.160156 2.957031 39.921875 2.421875 C 41.683594 1.886719 43.46875 1.441406 45.277344 1.082031 C 47.082031 0.722656 48.902344 0.453125 50.738281 0.269531 C 52.570312 0.0898438 54.40625 0 56.25 0 C 58.09375 0 59.929688 0.0898438 61.761719 0.269531 C 63.597656 0.453125 65.417969 0.722656 67.222656 1.082031 C 69.03125 1.441406 70.816406 1.886719 72.578125 2.421875 C 74.339844 2.957031 76.074219 3.578125 77.777344 4.28125 C 79.476562 4.988281 81.140625 5.773438 82.765625 6.640625 C 84.390625 7.511719 85.96875 8.457031 87.5 9.480469 C 89.03125 10.503906 90.511719 11.597656 91.933594 12.769531 C 93.359375 13.9375 94.722656 15.171875 96.023438 16.476562 C 97.328125 17.777344 98.5625 19.140625 99.730469 20.566406 C 100.902344 21.988281 101.996094 23.46875 103.019531 25 C 104.042969 26.53125 104.988281 28.109375 105.859375 29.734375 C 106.726562 31.359375 107.511719 33.023438 108.21875 34.722656 C 108.921875 36.425781 109.542969 38.160156 110.078125 39.921875 C 110.613281 41.683594 111.058594 43.46875 111.417969 45.277344 C 111.777344 47.082031 112.046875 48.902344 112.230469 50.738281 C 112.410156 52.570312 112.5 54.40625 112.5 56.25 Z M 112.5 56.25 " fill-opacity="1" fill-rule="nonzero"/></g><path fill="#f2f2f2" d="M 87.132812 45.625 C 90.144531 42.613281 90.144531 37.730469 87.132812 34.71875 C 84.121094 31.707031 79.238281 31.710938 76.226562 34.722656 L 49.539062 61.421875 L 36.21875 48.097656 C 33.207031 45.089844 28.324219 45.089844 25.3125 48.097656 C 22.300781 51.109375 22.300781 55.992188 25.3125 59.003906 L 44.089844 77.777344 C 45.535156 79.226562 47.496094 80.039062 49.542969 80.039062 C 51.589844 80.039062 53.550781 79.222656 54.996094 77.777344 Z M 87.132812 45.625 " fill-opacity="1" fill-rule="nonzero"/></svg>