<svg xmlns="http://www.w3.org/2000/svg" xmlns:xlink="http://www.w3.org/1999/xlink" width="150" zoomAndPan="magnify" viewBox="0 0 112.5 112.499997" height="150" preserveAspectRatio="xMidYMid meet" version="1.0"><defs><clipPath id="3f68a34426"><path d="M 0.347656 0.347656 L 112.003906 0.347656 L 112.003906 112.003906 L 0.347656 112.003906 Z M 0.347656 0.347656 " clip-rule="nonzero"/></clipPath><clipPath id="a6f5c3597f"><path d="M 56.25 0.347656 C 25.375 0.347656 0.347656 25.375 0.347656 56.25 C 0.347656 87.125 25.375 112.152344 56.25 112.152344 C 87.125 112.152344 112.152344 87.125 112.152344 56.25 C 112.152344 25.375 87.125 0.347656 56.25 0.347656 Z M 56.25 0.347656 " clip-rule="nonzero"/></clipPath><clipPath id="d529b2736b"><path d="M 21.03125 26.164062 L 91.53125 26.164062 L 91.53125 93.664062 L 21.03125 93.664062 Z M 21.03125 26.164062 " clip-rule="nonzero"/></clipPath></defs><g clip-path="url(#3f68a34426)"><g clip-path="url(#a6f5c3597f)"><path fill="#ff3131" d="M 0.347656 0.347656 L 112.152344 0.347656 L 112.152344 112.152344 L 0.347656 112.152344 Z M 0.347656 0.347656 " fill-opacity="1" fill-rule="nonzero"/></g></g><g clip-path="url(#d529b2736b)"><path fill="#ffffff" d="M 21.332031 36.015625 C 21.332031 36.015625 21.140625 26.601562 30.640625 26.601562 C 40.140625 26.601562 82.207031 26.886719 82.207031 26.886719 C 82.207031 26.886719 91.324219 26.980469 91.324219 36.109375 C 91.324219 45.234375 91.324219 66.148438 91.324219 66.148438 C 91.324219 66.148438 91.515625 75.039062 82.445312 75.039062 L 79.070312 74.988281 L 79.070312 93.085938 L 65.523438 74.703125 L 30.703125 74.703125 C 30.703125 74.703125 21.648438 75.207031 21.648438 65.640625 C 21.648438 56.074219 21.332031 36.015625 21.332031 36.015625 Z M 46.199219 49.863281 C 46.199219 46.917969 43.816406 44.539062 40.882812 44.539062 C 37.945312 44.539062 35.5625 46.921875 35.5625 49.863281 C 35.5625 52.804688 37.945312 55.183594 40.882812 55.183594 C 43.816406 55.183594 46.199219 52.804688 46.199219 49.863281 Z M 77.089844 49.863281 C 77.089844 46.917969 74.710938 44.539062 71.773438 44.539062 C 68.832031 44.539062 66.453125 46.921875 66.453125 49.863281 C 66.453125 52.804688 68.832031 55.183594 71.773438 55.183594 C 74.710938 55.183594 77.089844 52.804688 77.089844 49.863281 Z M 61.644531 49.863281 C 61.644531 46.917969 59.265625 44.539062 56.324219 44.539062 C 53.386719 44.539062 51.007812 46.921875 51.007812 49.863281 C 51.007812 52.804688 53.386719 55.183594 56.324219 55.183594 C 59.265625 55.183594 61.644531 52.804688 61.644531 49.863281 Z M 61.644531 49.863281 " fill-opacity="1" fill-rule="nonzero"/></g></svg>