<svg xmlns="http://www.w3.org/2000/svg" xmlns:xlink="http://www.w3.org/1999/xlink" width="150" zoomAndPan="magnify" viewBox="0 0 112.5 112.499997" height="150" preserveAspectRatio="xMidYMid meet" version="1.0"><defs><clipPath id="bb8aba5f5a"><path d="M 0.347656 0.347656 L 112.003906 0.347656 L 112.003906 112.003906 L 0.347656 112.003906 Z M 0.347656 0.347656 " clip-rule="nonzero"/></clipPath><clipPath id="a7d8de8bf2"><path d="M 56.25 0.347656 C 25.375 0.347656 0.347656 25.375 0.347656 56.25 C 0.347656 87.125 25.375 112.152344 56.25 112.152344 C 87.125 112.152344 112.152344 87.125 112.152344 56.25 C 112.152344 25.375 87.125 0.347656 56.25 0.347656 Z M 56.25 0.347656 " clip-rule="nonzero"/></clipPath><clipPath id="c2e5f34b7f"><path d="M 26.835938 22 L 83 22 L 83 92.703125 L 26.835938 92.703125 Z M 26.835938 22 " clip-rule="nonzero"/></clipPath></defs><g clip-path="url(#bb8aba5f5a)"><g clip-path="url(#a7d8de8bf2)"><path fill="#ff3131" d="M 0.347656 0.347656 L 112.152344 0.347656 L 112.152344 112.152344 L 0.347656 112.152344 Z M 0.347656 0.347656 " fill-opacity="1" fill-rule="nonzero"/></g></g><g clip-path="url(#c2e5f34b7f)"><path fill="#ffffff" d="M 77.804688 92.398438 L 31.585938 92.398438 C 28.996094 92.398438 26.835938 90.21875 26.835938 87.601562 L 26.835938 27.660156 C 26.835938 25.046875 28.996094 22.867188 31.585938 22.867188 L 36.121094 22.867188 C 36.984375 22.867188 37.742188 23.628906 37.742188 24.5 C 37.742188 25.375 36.984375 26.136719 36.121094 26.136719 L 31.585938 26.136719 C 30.722656 26.136719 30.074219 26.789062 30.074219 27.660156 L 30.074219 87.601562 C 30.074219 88.472656 30.722656 89.128906 31.585938 89.128906 L 77.804688 89.128906 C 78.667969 89.128906 79.316406 88.472656 79.316406 87.601562 L 79.316406 66.894531 C 79.316406 66.023438 80.074219 65.261719 80.9375 65.261719 C 81.800781 65.261719 82.558594 66.023438 82.558594 66.894531 L 82.558594 87.601562 C 82.558594 90.328125 80.503906 92.398438 77.804688 92.398438 Z M 77.804688 92.398438 " fill-opacity="1" fill-rule="nonzero"/></g><path fill="#ffffff" d="M 80.9375 33.65625 C 80.074219 33.65625 79.316406 32.894531 79.316406 32.019531 L 79.316406 27.660156 C 79.316406 26.789062 78.667969 26.136719 77.804688 26.136719 L 73.269531 26.136719 C 72.40625 26.136719 71.648438 25.375 71.648438 24.5 C 71.648438 23.628906 72.40625 22.867188 73.269531 22.867188 L 77.804688 22.867188 C 80.398438 22.867188 82.558594 25.046875 82.558594 27.660156 L 82.558594 32.019531 C 82.558594 32.894531 81.910156 33.65625 80.9375 33.65625 Z M 80.9375 33.65625 " fill-opacity="1" fill-rule="nonzero"/><path fill="#ffffff" d="M 65.277344 32.785156 L 44.113281 32.785156 C 42.492188 32.785156 41.089844 31.476562 41.089844 29.734375 L 41.089844 21.667969 C 41.089844 20.03125 42.386719 18.617188 44.113281 18.617188 L 48.972656 18.617188 C 49.726562 16.109375 51.996094 14.257812 54.695312 14.257812 C 57.394531 14.257812 59.769531 16.109375 60.417969 18.617188 L 65.171875 18.617188 C 66.789062 18.617188 68.195312 19.925781 68.195312 21.667969 L 68.195312 29.734375 C 68.300781 31.476562 67.007812 32.785156 65.277344 32.785156 Z M 44.4375 29.515625 L 65.0625 29.515625 L 65.0625 21.886719 L 59.125 21.886719 C 58.257812 21.886719 57.503906 21.121094 57.503906 20.25 C 57.503906 18.726562 56.316406 17.527344 54.804688 17.527344 C 53.292969 17.527344 52.105469 18.726562 52.105469 20.25 C 52.105469 21.121094 51.347656 21.886719 50.484375 21.886719 L 44.4375 21.886719 Z M 44.4375 29.515625 " fill-opacity="1" fill-rule="nonzero"/><path fill="#ffffff" d="M 48.109375 66.023438 L 37.203125 66.023438 L 37.203125 55.015625 L 48.109375 55.015625 Z M 40.441406 62.753906 L 44.867188 62.753906 L 44.867188 58.285156 L 40.441406 58.285156 Z M 40.441406 62.753906 " fill-opacity="1" fill-rule="nonzero"/><path fill="#ffffff" d="M 61.390625 62.101562 L 54.480469 62.101562 C 53.617188 62.101562 52.859375 61.335938 52.859375 60.464844 C 52.859375 59.59375 53.617188 58.832031 54.480469 58.832031 L 61.390625 58.832031 C 62.253906 58.832031 63.011719 59.59375 63.011719 60.464844 C 63.011719 61.335938 62.253906 62.101562 61.390625 62.101562 Z M 61.390625 62.101562 " fill-opacity="1" fill-rule="nonzero"/><path fill="#ffffff" d="M 48.109375 82.261719 L 37.203125 82.261719 L 37.203125 71.253906 L 48.109375 71.253906 Z M 40.441406 78.992188 L 44.867188 78.992188 L 44.867188 74.523438 L 40.441406 74.523438 Z M 40.441406 78.992188 " fill-opacity="1" fill-rule="nonzero"/><path fill="#ffffff" d="M 48.109375 49.785156 L 37.203125 49.785156 L 37.203125 38.777344 L 48.109375 38.777344 Z M 40.441406 46.515625 L 44.867188 46.515625 L 44.867188 42.046875 L 40.441406 42.046875 Z M 40.441406 46.515625 " fill-opacity="1" fill-rule="nonzero"/><path fill="#ffffff" d="M 70.570312 42.703125 L 54.371094 42.703125 C 53.507812 42.703125 52.753906 41.9375 52.753906 41.066406 C 52.753906 40.195312 53.507812 39.433594 54.371094 39.433594 L 70.570312 39.433594 C 71.433594 39.433594 72.191406 40.195312 72.191406 41.066406 C 72.191406 41.9375 71.542969 42.703125 70.570312 42.703125 Z M 70.570312 42.703125 " fill-opacity="1" fill-rule="nonzero"/><path fill="#ffffff" d="M 66.359375 49.023438 L 54.480469 49.023438 C 53.617188 49.023438 52.859375 48.257812 52.859375 47.386719 C 52.859375 46.515625 53.617188 45.753906 54.480469 45.753906 L 66.46875 45.753906 C 67.332031 45.753906 68.085938 46.515625 68.085938 47.386719 C 68.085938 48.257812 67.332031 49.023438 66.359375 49.023438 Z M 66.359375 49.023438 " fill-opacity="1" fill-rule="nonzero"/><path fill="#ffffff" d="M 61.605469 79.753906 C 61.285156 79.753906 60.960938 79.644531 60.742188 79.429688 C 60.203125 79.101562 59.878906 78.339844 60.09375 77.683594 L 62.039062 69.402344 C 62.039062 69.183594 62.148438 68.964844 62.253906 68.855469 L 82.234375 39.324219 C 82.773438 38.558594 83.746094 38.34375 84.5 38.886719 C 85.257812 39.433594 85.472656 40.414062 84.933594 41.175781 L 64.953125 70.601562 L 64.089844 74.414062 L 67.332031 72.234375 L 88.929688 40.304688 L 85.257812 37.796875 C 84.933594 37.578125 84.609375 37.144531 84.609375 36.707031 C 84.5 36.273438 84.609375 35.835938 84.824219 35.507812 L 86.878906 32.347656 C 87.417969 31.585938 88.390625 31.367188 89.144531 31.914062 L 94.113281 35.398438 C 94.867188 35.945312 95.085938 36.925781 94.542969 37.6875 C 94.003906 38.449219 93.03125 38.667969 92.277344 38.125 L 88.605469 35.617188 L 88.390625 35.945312 L 92.0625 38.449219 C 92.382812 38.667969 92.707031 39.105469 92.707031 39.539062 C 92.816406 39.976562 92.707031 40.414062 92.492188 40.738281 L 69.816406 74.199219 C 69.707031 74.414062 69.597656 74.523438 69.382812 74.632812 L 62.472656 79.539062 C 62.253906 79.644531 61.929688 79.753906 61.605469 79.753906 Z M 61.605469 79.753906 " fill-opacity="1" fill-rule="nonzero"/></svg>