<svg xmlns="http://www.w3.org/2000/svg" xmlns:xlink="http://www.w3.org/1999/xlink" width="150" zoomAndPan="magnify" viewBox="0 0 112.5 112.499997" height="150" preserveAspectRatio="xMidYMid meet" version="1.0"><defs><clipPath id="30df3fcad0"><path d="M 0.347656 0.347656 L 112.003906 0.347656 L 112.003906 112.003906 L 0.347656 112.003906 Z M 0.347656 0.347656 " clip-rule="nonzero"/></clipPath><clipPath id="3894861df8"><path d="M 56.25 0.347656 C 25.375 0.347656 0.347656 25.375 0.347656 56.25 C 0.347656 87.125 25.375 112.152344 56.25 112.152344 C 87.125 112.152344 112.152344 87.125 112.152344 56.25 C 112.152344 25.375 87.125 0.347656 56.25 0.347656 Z M 56.25 0.347656 " clip-rule="nonzero"/></clipPath><clipPath id="6ff79a23c3"><path d="M 62 62 L 91 62 L 91 90.492188 L 62 90.492188 Z M 62 62 " clip-rule="nonzero"/></clipPath></defs><g clip-path="url(#30df3fcad0)"><g clip-path="url(#3894861df8)"><path fill="#ff3131" d="M 0.347656 0.347656 L 112.152344 0.347656 L 112.152344 112.152344 L 0.347656 112.152344 Z M 0.347656 0.347656 " fill-opacity="1" fill-rule="nonzero"/></g></g><path fill="#ffffff" d="M 47.859375 75.683594 C 47.285156 75.683594 46.710938 75.664062 46.140625 75.628906 C 45.566406 75.597656 44.996094 75.542969 44.425781 75.472656 C 43.855469 75.402344 43.289062 75.316406 42.726562 75.210938 C 42.160156 75.105469 41.601562 74.984375 41.042969 74.84375 C 40.484375 74.707031 39.933594 74.550781 39.386719 74.375 C 38.839844 74.203125 38.296875 74.011719 37.761719 73.808594 C 37.226562 73.601562 36.699219 73.378906 36.175781 73.140625 C 35.65625 72.902344 35.140625 72.644531 34.632812 72.375 C 34.128906 72.105469 33.628906 71.820312 33.140625 71.519531 C 32.652344 71.21875 32.175781 70.902344 31.703125 70.570312 C 31.234375 70.242188 30.777344 69.898438 30.328125 69.539062 C 29.878906 69.179688 29.445312 68.808594 29.019531 68.421875 C 28.59375 68.039062 28.179688 67.640625 27.777344 67.230469 C 27.378906 66.816406 26.988281 66.394531 26.613281 65.960938 C 26.238281 65.527344 25.878906 65.082031 25.53125 64.625 C 25.183594 64.167969 24.851562 63.699219 24.53125 63.222656 C 24.210938 62.746094 23.910156 62.257812 23.621094 61.765625 C 23.332031 61.269531 23.054688 60.765625 22.796875 60.25 C 22.539062 59.738281 22.296875 59.21875 22.070312 58.691406 C 21.847656 58.164062 21.636719 57.628906 21.441406 57.089844 C 21.25 56.546875 21.074219 56.003906 20.914062 55.453125 C 20.753906 54.902344 20.609375 54.34375 20.484375 53.785156 C 20.359375 53.226562 20.25 52.660156 20.160156 52.09375 C 20.066406 51.527344 19.992188 50.960938 19.9375 50.386719 C 19.882812 49.816406 19.84375 49.246094 19.820312 48.671875 C 19.800781 48.097656 19.796875 47.523438 19.8125 46.949219 C 19.824219 46.375 19.855469 45.804688 19.90625 45.230469 C 19.953125 44.660156 20.023438 44.089844 20.105469 43.523438 C 20.191406 42.953125 20.292969 42.390625 20.410156 41.828125 C 20.53125 41.265625 20.664062 40.710938 20.820312 40.15625 C 20.972656 39.601562 21.140625 39.054688 21.328125 38.511719 C 21.515625 37.96875 21.71875 37.433594 21.9375 36.902344 C 22.15625 36.375 22.394531 35.851562 22.644531 35.335938 C 22.898438 34.820312 23.164062 34.3125 23.449219 33.8125 C 23.730469 33.3125 24.027344 32.824219 24.34375 32.339844 C 24.65625 31.859375 24.980469 31.390625 25.324219 30.929688 C 25.667969 30.46875 26.023438 30.015625 26.390625 29.578125 C 26.761719 29.140625 27.144531 28.710938 27.539062 28.296875 C 27.9375 27.878906 28.34375 27.476562 28.765625 27.085938 C 29.183594 26.695312 29.617188 26.320312 30.0625 25.957031 C 30.503906 25.589844 30.960938 25.242188 31.425781 24.90625 C 31.890625 24.570312 32.363281 24.246094 32.851562 23.941406 C 33.335938 23.632812 33.828125 23.34375 34.332031 23.066406 C 34.835938 22.789062 35.347656 22.527344 35.863281 22.28125 C 36.382812 22.039062 36.910156 21.808594 37.441406 21.597656 C 37.976562 21.382812 38.515625 21.1875 39.058594 21.007812 C 39.605469 20.828125 40.15625 20.664062 40.710938 20.519531 C 41.265625 20.371094 41.824219 20.242188 42.386719 20.132812 C 42.949219 20.019531 43.515625 19.925781 44.085938 19.847656 C 44.652344 19.769531 45.222656 19.710938 45.796875 19.667969 C 46.367188 19.628906 46.941406 19.601562 47.515625 19.597656 C 48.089844 19.589844 48.664062 19.601562 49.234375 19.628906 C 49.808594 19.65625 50.382812 19.703125 50.953125 19.765625 C 51.523438 19.832031 52.089844 19.910156 52.65625 20.011719 C 53.222656 20.109375 53.78125 20.222656 54.339844 20.355469 C 54.898438 20.488281 55.453125 20.640625 56.003906 20.808594 C 56.550781 20.972656 57.09375 21.15625 57.632812 21.359375 C 58.171875 21.558594 58.703125 21.773438 59.226562 22.007812 C 59.75 22.242188 60.269531 22.488281 60.777344 22.753906 C 61.285156 23.019531 61.789062 23.296875 62.28125 23.59375 C 62.773438 23.890625 63.253906 24.199219 63.726562 24.523438 C 64.199219 24.847656 64.664062 25.1875 65.113281 25.542969 C 65.566406 25.894531 66.007812 26.261719 66.4375 26.644531 C 66.867188 27.023438 67.285156 27.417969 67.691406 27.824219 C 68.667969 28.796875 69.566406 29.839844 70.386719 30.945312 C 71.210938 32.054688 71.945312 33.214844 72.597656 34.429688 C 73.246094 35.648438 73.804688 36.90625 74.269531 38.203125 C 74.734375 39.5 75.101562 40.828125 75.371094 42.179688 C 75.640625 43.53125 75.808594 44.898438 75.878906 46.273438 C 75.945312 47.652344 75.914062 49.027344 75.777344 50.398438 C 75.640625 51.773438 75.40625 53.128906 75.070312 54.464844 C 74.738281 55.804688 74.304688 57.109375 73.777344 58.382812 C 73.25 59.65625 72.628906 60.886719 71.921875 62.070312 C 71.210938 63.25 70.417969 64.375 69.542969 65.441406 C 68.667969 66.507812 67.71875 67.503906 66.699219 68.429688 C 65.675781 69.355469 64.589844 70.199219 63.445312 70.964844 C 62.296875 71.730469 61.101562 72.410156 59.851562 73 C 58.605469 73.585938 57.320312 74.082031 56 74.480469 C 54.683594 74.878906 53.339844 75.179688 51.976562 75.382812 C 50.609375 75.582031 49.238281 75.683594 47.859375 75.683594 Z M 47.859375 25.773438 C 47.023438 25.773438 46.1875 25.816406 45.355469 25.910156 C 44.527344 26.003906 43.703125 26.144531 42.886719 26.335938 C 42.070312 26.523438 41.269531 26.757812 40.480469 27.039062 C 39.691406 27.316406 38.921875 27.640625 38.171875 28.011719 C 37.421875 28.378906 36.691406 28.789062 35.988281 29.242188 C 35.285156 29.695312 34.609375 30.183594 33.960938 30.714844 C 33.3125 31.246094 32.699219 31.808594 32.113281 32.410156 C 31.53125 33.007812 30.984375 33.640625 30.472656 34.304688 C 29.964844 34.96875 29.492188 35.65625 29.0625 36.375 C 28.628906 37.089844 28.242188 37.832031 27.894531 38.59375 C 27.546875 39.355469 27.246094 40.132812 26.988281 40.929688 C 26.730469 41.726562 26.519531 42.535156 26.355469 43.355469 C 26.191406 44.175781 26.074219 45 26.003906 45.835938 C 25.9375 46.667969 25.914062 47.503906 25.941406 48.339844 C 25.96875 49.175781 26.042969 50.007812 26.164062 50.835938 C 26.285156 51.664062 26.453125 52.484375 26.667969 53.292969 C 26.882812 54.101562 27.144531 54.894531 27.453125 55.671875 C 27.757812 56.449219 28.109375 57.210938 28.503906 57.949219 C 28.894531 58.6875 29.332031 59.398438 29.804688 60.089844 C 30.28125 60.777344 30.796875 61.4375 31.347656 62.066406 C 31.898438 62.695312 32.484375 63.292969 33.101562 63.855469 C 33.722656 64.417969 34.371094 64.941406 35.050781 65.429688 C 35.730469 65.917969 36.4375 66.363281 37.167969 66.773438 C 37.898438 67.179688 38.652344 67.542969 39.421875 67.863281 C 40.195312 68.183594 40.984375 68.460938 41.789062 68.691406 C 42.59375 68.921875 43.410156 69.105469 44.234375 69.242188 C 45.058594 69.378906 45.890625 69.464844 46.726562 69.507812 C 47.5625 69.550781 48.398438 69.542969 49.234375 69.488281 C 50.066406 69.433594 50.898438 69.332031 51.71875 69.183594 C 52.542969 69.03125 53.355469 68.835938 54.15625 68.59375 C 54.957031 68.351562 55.742188 68.0625 56.507812 67.730469 C 57.277344 67.398438 58.023438 67.023438 58.746094 66.605469 C 59.472656 66.1875 60.171875 65.726562 60.84375 65.230469 C 61.515625 64.730469 62.15625 64.195312 62.769531 63.625 C 63.378906 63.050781 63.953125 62.445312 64.496094 61.808594 C 65.035156 61.171875 65.539062 60.503906 66.003906 59.808594 C 66.46875 59.113281 66.894531 58.390625 67.273438 57.648438 C 67.65625 56.902344 67.996094 56.140625 68.289062 55.355469 C 68.585938 54.574219 68.832031 53.777344 69.035156 52.964844 C 69.238281 52.152344 69.394531 51.332031 69.503906 50.5 C 69.613281 49.671875 69.675781 48.839844 69.6875 48.003906 C 69.703125 47.164062 69.667969 46.332031 69.585938 45.5 C 69.503906 44.664062 69.371094 43.839844 69.195312 43.023438 C 69.019531 42.203125 68.792969 41.398438 68.523438 40.609375 C 68.253906 39.816406 67.941406 39.042969 67.582031 38.285156 C 67.226562 37.527344 66.824219 36.796875 66.382812 36.085938 C 65.941406 35.375 65.457031 34.691406 64.9375 34.039062 C 64.417969 33.382812 63.859375 32.757812 63.269531 32.167969 C 62.257812 31.15625 61.15625 30.253906 59.964844 29.457031 C 58.777344 28.660156 57.519531 27.988281 56.199219 27.441406 C 54.878906 26.890625 53.515625 26.476562 52.113281 26.195312 C 50.707031 25.917969 49.289062 25.773438 47.859375 25.773438 Z M 47.859375 25.773438 " fill-opacity="1" fill-rule="nonzero"/><g clip-path="url(#6ff79a23c3)"><path fill="#ffffff" d="M 87.613281 90.492188 C 86.765625 90.488281 86.039062 90.183594 85.441406 89.582031 L 63.328125 67.484375 C 63.039062 67.195312 62.816406 66.863281 62.660156 66.484375 C 62.503906 66.105469 62.425781 65.714844 62.425781 65.304688 C 62.425781 64.894531 62.503906 64.503906 62.660156 64.125 C 62.816406 63.746094 63.039062 63.414062 63.328125 63.125 C 63.621094 62.835938 63.953125 62.613281 64.332031 62.457031 C 64.707031 62.300781 65.101562 62.222656 65.511719 62.222656 C 65.917969 62.222656 66.3125 62.300781 66.691406 62.457031 C 67.066406 62.613281 67.402344 62.835938 67.691406 63.125 L 89.785156 85.234375 C 90.226562 85.675781 90.503906 86.203125 90.625 86.8125 C 90.746094 87.421875 90.6875 88.011719 90.449219 88.585938 C 90.210938 89.160156 89.835938 89.621094 89.320312 89.96875 C 88.804688 90.3125 88.234375 90.488281 87.613281 90.492188 Z M 87.613281 90.492188 " fill-opacity="1" fill-rule="nonzero"/></g></svg>